<?xml version="1.0" encoding="utf-8"?>
<!-- Generator: Adobe Illustrator 27.0.0, SVG Export Plug-In . SVG Version: 6.00 Build 0)  -->
<svg version="1.1" id="Capa_1" xmlns="http://www.w3.org/2000/svg" xmlns:xlink="http://www.w3.org/1999/xlink" x="0px" y="0px"
	 viewBox="0 0 50 50" style="enable-background:new 0 0 50 50;" xml:space="preserve">
<style type="text/css">
	.st0{fill:#3354FE;}
	.st1{fill:#FFFFFF;}
</style>
<path class="st0" d="M35,50H15C6.7,50,0,43.3,0,35l0-20C0,6.7,6.7,0,15,0l20,0c8.3,0,15,6.7,15,15v20C50,43.3,43.3,50,35,50z"/>
<g>
	<path class="st1" d="M38.9,40.6H11.1c-1,0-1.7-0.8-1.7-1.7c0-1,0.8-1.7,1.7-1.7h27.8c1,0,1.7,0.8,1.7,1.7
		C40.6,39.9,39.9,40.6,38.9,40.6z M25,33.7c-1,0-1.7-0.8-1.7-1.7V15.3l-4,4c-0.7,0.7-1.8,0.7-2.5,0c-0.7-0.7-0.7-1.8,0-2.5l7-7
		c0,0,0,0,0,0c0,0,0,0,0,0c0,0,0,0,0,0c0,0,0,0,0,0c0,0,0,0,0,0c0,0,0,0,0,0c0,0,0,0,0,0c0.2-0.2,0.3-0.3,0.5-0.4c0,0,0,0,0,0
		c0,0,0,0,0,0c0.2-0.1,0.4-0.1,0.7-0.1c0.2,0,0.5,0,0.7,0.1c0,0,0,0,0,0c0,0,0,0,0,0c0.2,0.1,0.4,0.2,0.5,0.4c0,0,0,0,0,0
		c0,0,0,0,0,0c0,0,0,0,0,0c0,0,0,0,0,0c0,0,0,0,0,0c0,0,0,0,0,0c0,0,0,0,0,0c0,0,0,0,0,0l7,7c0.7,0.7,0.7,1.8,0,2.5
		c-0.7,0.7-1.8,0.7-2.5,0l-4-4V32C26.7,32.9,26,33.7,25,33.7z"/>
</g>
</svg>
