<?xml version="1.0" encoding="utf-8"?>
<!-- Generator: Adobe Illustrator 27.0.0, SVG Export Plug-In . SVG Version: 6.00 Build 0)  -->
<svg version="1.1" id="uuid-79bdbe87-2393-4e1b-9062-3c16a58e5439"
	 xmlns="http://www.w3.org/2000/svg" xmlns:xlink="http://www.w3.org/1999/xlink" x="0px" y="0px" viewBox="0 0 57.3 53.5"
	 style="enable-background:new 0 0 57.3 53.5;" xml:space="preserve">
<style type="text/css">
	.st0{fill:#FFFFFF;}
	.st1{fill:#183052;}
</style>
<g>
	<path class="st0" d="M28.7,52C14.4,52,2.8,40.6,2.8,26.7c0-3.9,0.9-7.8,2.7-11.3c-2.4-1.2-4-3.6-4-6.4c0-3.9,3.2-7.1,7.1-7.1
		c2.6,0,4.9,1.4,6.2,3.6c4.1-2.6,8.9-3.9,13.8-3.9s9.7,1.3,13.8,3.9c1.2-2.2,3.6-3.6,6.2-3.6c3.9,0,7.1,3.2,7.1,7.1
		c0,2.8-1.6,5.3-4,6.4c1.8,3.5,2.7,7.4,2.7,11.3C54.6,40.7,43,52,28.7,52L28.7,52z"/>
	<path class="st1" d="M28.7,3c5.4,0,10.5,1.7,14.5,4.7c0.6-2.5,2.8-4.3,5.5-4.3c3.1,0,5.6,2.5,5.6,5.6c0,2.8-2.1,5.1-4.8,5.6
		c2.2,3.6,3.5,7.7,3.5,12.2c0,13.1-10.9,23.7-24.4,23.7S4.3,39.8,4.3,26.7c0-4.5,1.3-8.6,3.5-12.2C5.1,14.1,3,11.8,3,9
		c0-3.1,2.5-5.6,5.6-5.6c2.7,0,4.9,1.9,5.5,4.3C18.2,4.7,23.2,3,28.7,3 M28.7,0c-4.8,0-9.3,1.2-13.4,3.4c-1.6-1.9-4-3.1-6.6-3.1
		C3.9,0.3,0,4.2,0,9c0,2.9,1.4,5.4,3.6,7c-1.5,3.4-2.3,7-2.3,10.7c0,14.7,12.3,26.7,27.4,26.7S56,41.5,56,26.7
		c0-3.7-0.8-7.4-2.3-10.7c2.2-1.6,3.6-4.1,3.6-7c0-4.8-3.9-8.6-8.6-8.6c-2.6,0-5,1.2-6.6,3.1C38,1.2,33.4,0,28.7,0L28.7,0L28.7,0z"
		/>
</g>
<g>
	<ellipse class="st1" cx="21.2" cy="17.5" rx="1.5" ry="3.9"/>
	<ellipse class="st1" cx="29.9" cy="17.5" rx="1.5" ry="3.9"/>
</g>
<path class="st1" d="M13.6,28.7c0,0,3.7-2.7,11.3-2.7s12.6,2.7,12.6,2.7s-4.8,8.1-12.6,8.1S13.6,28.7,13.6,28.7z"/>
<g>
	<path class="st1" d="M26.6,45.8C16.4,45.8,8,37.3,8,26.7c0-0.6,0.4-1,1-1s1,0.4,1,1c0,9.4,7.4,17.1,16.6,17.1
		c9.1,0,16.6-7.7,16.6-17.1c0-0.6,0.4-1,1-1s1,0.4,1,1C45.2,37.3,36.8,45.8,26.6,45.8z"/>
</g>
</svg>
