<?xml version="1.0" encoding="UTF-8"?><svg id="uuid-79bdbe87-2393-4e1b-9062-3c16a58e5439" xmlns="http://www.w3.org/2000/svg" width="20.23mm" height="18.86mm" viewBox="0 0 57.33 53.47"><defs><style>.uuid-a9469de4-121e-48bd-9e29-4965d1f33db8{fill:#fff;}.uuid-51e0090d-066b-450e-a526-e380720058d7{fill:none;stroke:#000;stroke-linecap:round;stroke-linejoin:round;stroke-width:2px;}</style></defs><g><path class="uuid-a9469de4-121e-48bd-9e29-4965d1f33db8" d="M28.67,51.97c-14.26,0-25.87-11.32-25.87-25.24,0-3.94,.94-7.82,2.75-11.32-2.43-1.16-4.04-3.62-4.04-6.44C1.5,5.04,4.7,1.84,8.64,1.84c2.62,0,4.94,1.4,6.19,3.57,4.13-2.56,8.88-3.91,13.84-3.91s9.7,1.35,13.84,3.91c1.25-2.17,3.57-3.57,6.19-3.57,3.94,0,7.14,3.2,7.14,7.14,0,2.82-1.62,5.28-4.04,6.44,1.8,3.5,2.75,7.37,2.75,11.32,0,13.92-11.6,25.24-25.87,25.24Z"/><path d="M28.67,3c5.45,0,10.48,1.74,14.54,4.69,.59-2.49,2.82-4.35,5.49-4.35,3.12,0,5.64,2.53,5.64,5.64,0,2.81-2.06,5.14-4.76,5.57,2.19,3.56,3.46,7.73,3.46,12.19,0,13.11-10.91,23.74-24.37,23.74S4.3,39.85,4.3,26.74c0-4.46,1.26-8.63,3.46-12.19-2.69-.43-4.76-2.75-4.76-5.57,0-3.12,2.53-5.64,5.64-5.64,2.67,0,4.9,1.86,5.49,4.35,4.06-2.94,9.09-4.69,14.54-4.69m0-3c-4.76,0-9.33,1.17-13.4,3.42C13.67,1.51,11.28,.34,8.64,.34,3.88,.34,0,4.22,0,8.98c0,2.88,1.39,5.45,3.6,7.03-1.51,3.37-2.3,7.02-2.3,10.73,0,14.74,12.28,26.74,27.37,26.74s27.37-11.99,27.37-26.74c0-3.71-.79-7.36-2.3-10.73,2.2-1.57,3.6-4.14,3.6-7.03,0-4.77-3.88-8.64-8.64-8.64-2.63,0-5.02,1.17-6.62,3.08-4.07-2.24-8.65-3.42-13.4-3.42h0Z"/></g><g><ellipse cx="21.23" cy="17.46" rx="1.54" ry="3.93"/><ellipse cx="29.93" cy="17.46" rx="1.54" ry="3.93"/></g><path d="M13.62,28.75s3.74-2.66,11.29-2.66,12.63,2.66,12.63,2.66c0,0-4.76,8.07-12.63,8.07s-11.29-8.07-11.29-8.07Z"/><path class="uuid-51e0090d-066b-450e-a526-e380720058d7" d="M44.15,26.74c0,9.99-7.87,18.09-17.57,18.09S9.01,36.73,9.01,26.74"/></svg>