<svg width="180" height="181" viewBox="0 0 180 181" fill="none" xmlns="http://www.w3.org/2000/svg">
<path d="M44.1666 45.9017H135.833V135.069H44.1666V45.9017Z" fill="url(#paint0_radial_22_666)"/>
<path d="M44.1666 45.9017H135.833V135.068H44.1666V45.9017ZM40 139.235H140V41.7351H40V139.235ZM110.75 88.7351C112.875 88.7351 113.625 88.7351 113.833 88.6518C113.833 88.3602 113.916 88.1517 113.916 87.9434C113.916 85.6934 112.833 81.5268 108.5 81.5268C104.5 81.5268 102.792 85.0266 102.375 88.7351H110.75ZM102.292 94.4434C102.375 100.068 105.042 103.86 111.375 103.86C113.833 103.86 115.958 103.527 118.167 102.569C118.458 102.444 118.667 102.485 118.667 102.86V108.069C118.667 108.485 118.542 108.694 118.25 108.902C116.042 109.985 113.292 110.485 109.875 110.485C98.8753 110.485 94.7502 102.36 94.7502 93.3187C94.7502 83.4853 99.8337 75.4438 108.792 75.4438C117.875 75.4438 121.042 83.0687 121.042 89.2771C121.042 91.2771 120.917 92.9021 120.709 93.6938C120.625 94.0271 120.5 94.1522 120.167 94.2356C119.334 94.3605 116.875 94.527 113.209 94.527H102.292V94.4434ZM79.9585 90.1934C78.7918 85.5684 75.9584 75.4851 74.9167 70.6101H74.8334C73.9585 75.4851 71.6666 83.735 69.9583 90.1934H79.9585ZM68.2499 96.9435L64.9583 109.402C64.875 109.735 64.75 109.86 64.3333 109.86H58.2082C57.7916 109.86 57.7081 109.735 57.7916 109.235L69.6249 67.8601C69.8332 67.1102 69.9582 66.5268 70.0415 64.4436C70.0415 64.1519 70.1665 64.027 70.3748 64.027H79.1248C79.4164 64.027 79.5414 64.1103 79.6249 64.4436L92.8748 109.319C92.9581 109.652 92.8748 109.86 92.5415 109.86H85.6666C85.3333 109.86 85.1248 109.735 85.0415 109.444L81.6248 96.9437L68.2499 96.9435Z" fill="#D8A1FF"/>
<defs>
<radialGradient id="paint0_radial_22_666" cx="0" cy="0" r="1" gradientUnits="userSpaceOnUse" gradientTransform="translate(74.3572 65.8841) scale(69.6666 67.4501)">
<stop stop-color="#442F55" stop-opacity="0.98"/>
<stop offset="1" stop-color="#12002C"/>
</radialGradient>
</defs>
</svg>
