<svg width="180" height="181" viewBox="0 0 180 181" fill="none" xmlns="http://www.w3.org/2000/svg">
<path d="M44.1666 45.6046H135.833V134.772H44.1666V45.6046Z" fill="url(#paint0_radial_22_669)"/>
<path d="M44.1666 45.6046H135.834V134.771H44.1666V45.6046ZM40 138.938H140V41.438H40V138.938ZM103.25 81.938C102.625 81.6463 101.792 81.5214 100.792 81.5214C95.4167 81.5214 91.6667 85.6465 91.6667 92.5214C91.6667 100.355 95.5 103.521 100.292 103.521C101.333 103.521 102.417 103.396 103.25 103.021V81.938ZM101.042 75.1464C101.917 75.1464 102.417 75.1464 103.25 75.2297V64.1463C103.25 63.8547 103.458 63.7297 103.666 63.7297H110.417C110.75 63.7297 110.833 63.8547 110.833 64.063V103.022C110.833 104.188 110.833 105.646 111.041 107.23C111.041 107.521 110.958 107.563 110.667 107.73C107.083 109.438 103.292 110.188 99.75 110.188C90.5417 110.188 83.9582 104.48 83.9582 92.8549C83.9167 82.8963 90.5 75.1464 101.042 75.1464ZM76.5835 109.022C76.5835 109.438 76.5002 109.563 76.0418 109.563H69.6251C69.2085 109.563 69.0833 109.355 69.0833 109.022V64.2713C69.0833 63.8547 69.2917 63.7295 69.6251 63.7295H76.0834C76.4167 63.7295 76.5835 63.8545 76.5835 64.2296V109.022Z" fill="#FF408C"/>
<defs>
<radialGradient id="paint0_radial_22_669" cx="0" cy="0" r="1" gradientUnits="userSpaceOnUse" gradientTransform="translate(74.3572 65.587) scale(69.6668 67.4502)">
<stop stop-color="#4B2B36" stop-opacity="0.98"/>
<stop offset="1" stop-color="#250012"/>
</radialGradient>
</defs>
</svg>
