<svg width="181" height="181" viewBox="0 0 181 181" fill="none" xmlns="http://www.w3.org/2000/svg">
<path d="M90.0676 41.1642L92.7362 46.1763C93.3362 47.1012 93.9861 47.9199 94.7517 48.6824C96.9962 50.8989 99.0883 53.2645 101.014 55.7631C105.535 61.7002 108.585 68.2934 110.763 75.4241C112.069 79.7801 112.779 84.2485 112.832 88.7669C113.05 102.275 108.419 113.874 99.0826 123.514C97.5639 125.043 95.9232 126.445 94.1767 127.708C93.2518 127.708 92.8143 126.998 92.4331 126.345C91.7389 125.134 91.2768 123.804 91.0707 122.424C90.7426 120.789 90.527 119.155 90.6332 117.468V116.705C90.5582 116.543 89.7427 41.5485 90.0676 41.1642Z" fill="#599636"/>
<path d="M90.0677 40.9986C89.9583 40.7799 89.8489 40.9455 89.7396 41.0517C89.7927 42.1454 89.4115 43.1203 88.8146 44.0515C88.1584 44.9764 87.2898 45.6858 86.4179 46.4482C81.5745 50.6417 77.7623 55.7069 74.7094 61.3721C70.6472 68.9965 68.5536 77.1678 67.9599 85.7703C67.6881 88.8732 68.9411 99.8224 69.9191 102.982C72.5877 111.368 77.3811 118.396 83.59 124.496C85.1149 125.964 86.746 127.327 88.4334 128.636C88.924 128.636 88.9771 128.198 89.0896 127.873C89.3047 127.178 89.4687 126.468 89.5802 125.749L90.6739 117.58L90.0677 40.9986Z" fill="#6CAC48"/>
<path d="M92.7362 131.026C92.8456 129.776 93.4455 128.739 94.0986 127.705C93.4424 127.433 92.9549 126.892 92.5737 126.289C92.245 125.718 91.9729 125.116 91.7613 124.492C90.9988 122.205 90.8364 119.805 90.6176 117.468V116.052C90.3458 116.271 90.2895 118.121 90.2895 118.396C90.1305 120.866 89.8027 123.323 89.3083 125.749C89.1458 126.73 89.0365 127.708 88.4334 128.58C88.4334 128.689 88.4334 128.798 88.4865 128.961C89.4677 131.848 89.7364 134.789 89.902 137.785V138.879C89.902 140.185 89.8489 139.91 90.9332 140.347C91.3707 140.51 91.8582 140.566 92.2956 140.891C92.6237 140.891 92.6768 140.619 92.6768 140.401L92.5144 138.604V133.592C92.4612 132.717 92.6237 131.848 92.7331 131.029L92.7362 131.026Z" fill="#C2BFBF"/>
</svg>
