<svg width="181" height="181" viewBox="0 0 181 181" fill="none" xmlns="http://www.w3.org/2000/svg">
<g clip-path="url(#clip0_20_1664)">
<path d="M106.477 80.0083H123.895V83.2233H116.986V100.137H113.53V83.2233H106.477V80.0083Z" fill="black"/>
<path d="M77.8304 80.0083V83.2233H63.8685V88.3951H75.0967V91.6101H63.8685V96.9218H77.8304V100.137H60.4137V83.2233H60.4122V80.0083H77.8304Z" fill="black"/>
<path d="M86.5279 80.0168H82.0066L98.201 100.145H102.736L94.6373 90.088L102.723 80.0322L98.201 80.0392L92.3736 87.2766L86.5279 80.0168Z" fill="black"/>
<path d="M91.1675 94.3945L88.9033 91.5793L81.9937 100.16H86.5279L91.1675 94.3945Z" fill="black"/>
<path fill-rule="evenodd" clip-rule="evenodd" d="M60.5348 100.137L44.3186 80H40V100.128H43.4548V84.3024L56.1946 100.137H60.5348Z" fill="black"/>
<path d="M124.672 100.014C124.419 100.014 124.204 99.9262 124.023 99.7509C123.843 99.5756 123.754 99.3634 123.756 99.112C123.754 98.8674 123.843 98.6575 124.023 98.4822C124.204 98.3069 124.419 98.2192 124.672 98.2192C124.915 98.2192 125.128 98.3069 125.308 98.4822C125.491 98.6575 125.582 98.8674 125.585 99.112C125.582 99.278 125.54 99.4303 125.456 99.5663C125.369 99.7048 125.259 99.8132 125.121 99.8916C124.985 99.9724 124.836 100.014 124.672 100.014Z" fill="black"/>
<path d="M130.568 91.5344H132.099V97.4327C132.097 97.9748 131.98 98.4385 131.751 98.8283C131.519 99.2181 131.198 99.5157 130.786 99.7256C130.377 99.9332 129.897 100.039 129.351 100.039C128.852 100.039 128.406 99.9493 128.008 99.774C127.61 99.5987 127.294 99.3358 127.062 98.9898C126.828 98.6437 126.713 98.2124 126.713 97.6957H128.246C128.249 97.9218 128.3 98.1178 128.398 98.2816C128.497 98.4454 128.632 98.5699 128.806 98.6576C128.981 98.7452 129.183 98.7891 129.41 98.7891C129.656 98.7891 129.866 98.7383 130.037 98.6345C130.208 98.533 130.339 98.3808 130.43 98.1778C130.519 97.9771 130.566 97.728 130.568 97.4327V91.5344Z" fill="black"/>
<path d="M138.399 93.8411C138.361 93.4836 138.198 93.2045 137.912 93.0061C137.624 92.8054 137.252 92.7062 136.795 92.7062C136.475 92.7062 136.199 92.7547 135.969 92.8493C135.74 92.9461 135.562 93.0753 135.44 93.2391C135.318 93.4029 135.257 93.5897 135.253 93.7996C135.253 93.9749 135.295 94.1272 135.377 94.2541C135.459 94.3832 135.569 94.4916 135.711 94.5793C135.852 94.6693 136.009 94.7431 136.18 94.803C136.353 94.863 136.526 94.9138 136.699 94.9553L137.498 95.1514C137.818 95.2252 138.13 95.3244 138.427 95.4512C138.724 95.5758 138.993 95.735 139.23 95.9264C139.466 96.1179 139.654 96.3485 139.792 96.6184C139.93 96.8883 140 97.2043 140 97.5688C140 98.0601 139.874 98.4915 139.618 98.8652C139.363 99.2365 138.996 99.5272 138.514 99.7371C138.034 99.9447 137.453 100.051 136.77 100.051C136.109 100.051 135.534 99.9494 135.049 99.7464C134.562 99.5457 134.183 99.2504 133.909 98.8629C133.635 98.4753 133.488 98.0025 133.467 97.4465H134.984C135.005 97.7372 135.098 97.9794 135.257 98.1755C135.419 98.3692 135.63 98.5123 135.887 98.6091C136.147 98.7037 136.437 98.7521 136.758 98.7521C137.093 98.7521 137.388 98.7014 137.643 98.6022C137.895 98.503 138.094 98.3646 138.237 98.1847C138.383 98.0071 138.455 97.7972 138.457 97.5573C138.455 97.3381 138.389 97.1559 138.263 97.0129C138.134 96.8699 137.956 96.7499 137.729 96.653C137.5 96.5562 137.233 96.4685 136.929 96.3924L135.96 96.1479C135.26 95.9702 134.705 95.7004 134.3 95.3382C133.893 94.9761 133.691 94.4963 133.691 93.8942C133.691 93.4006 133.827 92.9669 134.101 92.5955C134.372 92.2242 134.745 91.9358 135.215 91.7305C135.688 91.5229 136.222 91.4214 136.816 91.4214C137.42 91.4214 137.949 91.5229 138.406 91.7305C138.862 91.9358 139.221 92.2218 139.48 92.5863C139.74 92.9508 139.876 93.3683 139.883 93.8411H138.399Z" fill="black"/>
</g>
<defs>
<clipPath id="clip0_20_1664">
<rect width="100" height="20.3046" fill="white" transform="translate(40 80)"/>
</clipPath>
</defs>
</svg>
