<svg width="181" height="180" viewBox="0 0 181 180" fill="none" xmlns="http://www.w3.org/2000/svg">
<path d="M109.327 108.834C113.017 108.452 115.817 105.271 115.689 101.453C115.562 97.6356 112.381 94.5813 108.563 94.5813H108.309C104.363 94.7086 101.31 98.0172 101.437 101.962C101.564 103.871 102.328 105.525 103.473 106.671C99.1463 115.197 92.5291 121.433 82.6033 126.65C75.8587 130.214 68.8599 131.486 61.8611 130.596C56.1345 129.832 51.6806 127.287 48.8806 123.087C44.8087 116.852 44.4271 110.107 47.863 103.362C50.281 98.5262 54.0982 94.9629 56.5162 93.1813C56.0072 91.527 55.2435 88.7274 54.8619 86.6915C36.4099 100.054 38.3189 118.124 43.9181 126.65C48.1173 133.014 56.6435 136.959 66.0603 136.959C68.6052 136.959 71.1502 136.704 73.6955 136.068C89.9842 132.886 102.328 123.214 109.327 108.834ZM131.724 93.0543C122.052 81.7282 107.8 75.4926 91.5111 75.4926H89.4752C88.3299 73.202 85.9119 71.6747 83.2396 71.6747H82.9849C79.0404 71.802 75.9865 75.1106 76.1134 79.0559C76.2408 82.8735 79.422 85.9278 83.2396 85.9278H83.4939C86.2935 85.8004 88.7115 84.0188 89.7295 81.6008H92.0201C101.692 81.6008 110.854 84.4004 119.126 89.8727C125.488 94.0723 130.069 99.5446 132.614 106.162C134.778 111.507 134.65 116.724 132.36 121.179C128.797 127.923 122.816 131.614 114.926 131.614C109.836 131.614 105 130.086 102.455 128.941C101.055 130.214 98.5099 132.25 96.7283 133.523C102.201 136.068 107.8 137.468 113.144 137.468C125.361 137.468 134.396 130.723 137.832 123.978C141.522 116.597 141.267 103.871 131.724 93.0543ZM67.0783 110.997C67.2056 114.815 70.3869 117.869 74.2044 117.869H74.4591C78.4041 117.742 81.458 114.433 81.3306 110.488C81.2037 106.67 78.022 103.616 74.2044 103.616H73.9502C73.6955 103.616 73.3134 103.616 73.0595 103.743C67.8419 95.0899 65.6787 85.6731 66.4423 75.4922C66.9509 67.8567 69.4962 61.2391 73.9502 55.7668C77.6404 51.0583 84.7666 48.7676 89.6025 48.6407C103.091 48.386 108.817 65.184 109.199 71.929C110.854 72.3106 113.653 73.2016 115.562 73.8379C114.035 53.2223 101.31 42.5325 89.0935 42.5325C77.6404 42.5325 67.0783 50.8043 62.8787 63.0211C57.0251 79.3102 60.8427 94.9629 67.9689 107.307C67.333 108.198 66.9509 109.598 67.0783 110.998V110.997Z" fill="#764ABC"/>
</svg>
