<svg width="181" height="181" viewBox="0 0 181 181" fill="none" xmlns="http://www.w3.org/2000/svg">
<path d="M126.212 95.9112C122.724 95.9294 119.692 96.7697 117.153 98.0117C116.221 96.1669 115.29 94.523 115.125 93.3175C114.943 91.9111 114.723 91.0526 114.943 89.3722C115.162 87.6918 116.148 85.299 116.13 85.1163C116.112 84.9337 115.911 84.0752 113.901 84.0569C111.892 84.0387 110.157 84.4405 109.956 84.9702C109.755 85.4999 109.372 86.7054 109.116 87.9475C108.769 89.774 105.098 96.2948 102.997 99.7104C102.321 98.377 101.737 97.208 101.609 96.2765C101.426 94.8701 101.207 94.0116 101.426 92.3312C101.645 90.6507 102.632 88.258 102.613 88.0753C102.595 87.8927 102.394 87.0342 100.385 87.0159C98.3759 86.9977 96.6407 87.3995 96.4397 87.9292C96.2388 88.4589 96.0196 89.701 95.5995 90.9065C95.1794 92.112 90.3026 102.998 89.024 105.811C88.3664 107.254 87.8002 108.405 87.3984 109.19C87.3984 109.19 87.3801 109.245 87.3253 109.336C86.9783 110.012 86.7773 110.377 86.7773 110.377C86.7773 110.377 86.7773 110.377 86.7773 110.396C86.5034 110.889 86.2111 111.345 86.065 111.345C85.9554 111.345 85.7545 110.03 86.1015 108.24C86.8321 104.459 88.5674 98.5779 88.5491 98.377C88.5491 98.2674 88.8779 97.2446 87.4166 96.7149C85.9919 96.1852 85.4805 97.0619 85.3526 97.0619C85.2248 97.0619 85.1335 97.3724 85.1335 97.3724C85.1335 97.3724 86.7225 90.7603 82.1014 90.7603C79.2155 90.7603 75.2336 93.9203 73.261 96.7697C72.0189 97.4455 69.3704 98.8884 66.5393 100.441C65.4616 101.044 64.3475 101.647 63.3063 102.213C63.2333 102.14 63.1602 102.048 63.0871 101.975C57.4979 96.0025 47.1597 91.7832 47.5981 83.7647C47.7625 80.8422 48.7671 73.1708 67.4526 63.8554C82.832 56.2753 95.0698 58.3758 97.1886 63.0335C100.221 69.6821 90.6313 82.0295 74.7405 83.8195C68.6763 84.4953 65.4982 82.1573 64.6945 81.2806C63.8543 80.3673 63.7264 80.3125 63.4159 80.4952C62.9045 80.7692 63.2333 81.5911 63.4159 82.066C63.8908 83.3081 65.8452 85.4999 69.1512 86.5776C72.0737 87.5274 79.1789 88.0571 87.7819 84.7328C97.4078 81.0066 104.933 70.6502 102.723 61.9741C100.513 53.1702 85.9006 50.266 72.0737 55.1794C63.8543 58.1018 54.9408 62.7047 48.5296 68.6958C40.913 75.8193 39.7074 82.0112 40.2006 84.6049C41.9724 93.8107 54.6668 99.8017 59.7446 104.24C59.4889 104.386 59.2514 104.514 59.0505 104.624C56.5116 105.884 46.8309 110.944 44.4199 116.295C41.6801 122.359 44.8583 126.707 46.9588 127.291C53.4795 129.099 60.1829 125.848 63.7812 120.478C67.3795 115.108 66.9411 108.131 65.279 104.934C65.2607 104.898 65.2425 104.861 65.2059 104.825C65.8635 104.441 66.5393 104.039 67.1968 103.656C68.4937 102.889 69.7723 102.176 70.8682 101.592C70.2472 103.29 69.7905 105.318 69.5714 108.24C69.2974 111.674 70.7038 116.131 72.5486 117.884C73.3706 118.652 74.3386 118.67 74.9596 118.67C77.115 118.67 78.083 116.88 79.1607 114.761C80.4758 112.167 81.663 109.154 81.663 109.154C81.663 109.154 80.1835 117.3 84.2019 117.3C85.6632 117.3 87.1427 115.4 87.8002 114.432C87.8002 114.451 87.8002 114.451 87.8002 114.451C87.8002 114.451 87.8367 114.396 87.9098 114.268C88.0559 114.03 88.1473 113.884 88.1473 113.884C88.1473 113.884 88.1473 113.866 88.1473 113.848C88.7317 112.825 90.0469 110.505 92.0012 106.651C94.5219 101.683 96.9512 95.4728 96.9512 95.4728C96.9512 95.4728 97.1703 96.9888 97.9192 99.5095C98.3576 100.989 99.2709 102.615 100.001 104.185C99.417 105.007 99.0517 105.464 99.0517 105.464C99.0517 105.464 99.0517 105.464 99.07 105.482C98.5951 106.103 98.0836 106.779 97.5174 107.437C95.5265 109.811 93.152 112.533 92.8232 113.318C92.4396 114.25 92.5309 114.925 93.2616 115.473C93.7913 115.875 94.7411 115.93 95.7091 115.875C97.4991 115.747 98.7594 115.309 99.3805 115.035C100.349 114.688 101.481 114.158 102.54 113.373C104.495 111.93 105.682 109.866 105.572 107.144C105.518 105.647 105.024 104.149 104.422 102.742C104.604 102.487 104.769 102.231 104.951 101.975C108.038 97.4637 110.431 92.5138 110.431 92.5138C110.431 92.5138 110.65 94.0299 111.399 96.5505C111.764 97.829 112.513 99.2172 113.171 100.569C110.267 102.925 108.477 105.665 107.837 107.455C106.687 110.779 107.582 112.277 109.28 112.624C110.047 112.788 111.143 112.423 111.947 112.076C112.97 111.747 114.175 111.181 115.326 110.341C117.281 108.898 119.162 106.889 119.052 104.167C118.997 102.925 118.669 101.701 118.212 100.514C120.678 99.4912 123.856 98.925 127.911 99.3999C136.605 100.423 138.322 105.848 137.993 108.131C137.665 110.414 135.838 111.656 135.235 112.04C134.633 112.423 134.432 112.551 134.487 112.825C134.56 113.227 134.852 113.208 135.363 113.135C136.076 113.008 139.93 111.291 140.094 107.09C140.368 101.72 135.254 95.8564 126.212 95.9112ZM59.1418 118.524C56.2559 121.665 52.2375 122.853 50.5023 121.848C48.6392 120.77 49.3698 116.131 52.9133 112.807C55.0686 110.779 57.845 108.898 59.6898 107.747C60.1099 107.491 60.7309 107.126 61.4798 106.669C61.6076 106.596 61.6807 106.56 61.6807 106.56C61.8268 106.469 61.9729 106.377 62.1191 106.286C63.4159 111.035 62.1739 115.218 59.1418 118.524ZM80.147 104.24C79.1424 106.688 77.0419 112.953 75.7633 112.606C74.6674 112.313 73.9916 107.564 75.5441 102.87C76.3295 100.514 77.9917 97.7012 78.9598 96.6053C80.5306 94.8518 82.2658 94.2673 82.6859 94.9796C83.2156 95.9112 80.768 102.706 80.147 104.24ZM97.4809 112.533C97.0608 112.752 96.6589 112.898 96.4763 112.788C96.3484 112.715 96.6589 112.423 96.6589 112.423C96.6589 112.423 98.8325 110.085 99.691 109.026C100.184 108.405 100.769 107.674 101.39 106.852C101.39 106.925 101.39 107.017 101.39 107.09C101.39 109.884 98.6864 111.766 97.4809 112.533ZM110.851 109.482C110.541 109.263 110.595 108.533 111.637 106.249C112.038 105.354 112.988 103.857 114.614 102.414C114.796 102.998 114.924 103.564 114.906 104.094C114.888 107.619 112.367 108.934 110.851 109.482Z" fill="#CD6799"/>
</svg>
